<svg width="16" height="22" viewBox="0 0 16 22" fill="none" xmlns="http://www.w3.org/2000/svg">
<path fill-rule="evenodd" clip-rule="evenodd" d="M3 1.75C2.9337 1.75 2.87011 1.77634 2.82322 1.82322C2.77634 1.87011 2.75 1.9337 2.75 2V10.25H13.25V2C13.25 1.93369 13.2237 1.87011 13.1768 1.82322C13.1299 1.77634 13.0663 1.75 13 1.75H10.75V5C10.75 5.41421 10.4142 5.75 10 5.75C9.58579 5.75 9.25 5.41421 9.25 5V1.75H6.75V3C6.75 3.41421 6.41421 3.75 6 3.75C5.58579 3.75 5.25 3.41421 5.25 3V1.75H3ZM3 0.25C2.53587 0.25 2.09075 0.434374 1.76256 0.762563C1.43437 1.09075 1.25 1.53587 1.25 2V10.4189C1.07072 10.5039 0.905547 10.6196 0.762563 10.7626C0.434375 11.0908 0.25 11.5359 0.25 12V13C0.25 13.7293 0.539731 14.4288 1.05546 14.9445C1.57118 15.4603 2.27065 15.75 3 15.75H5C5.06631 15.75 5.12989 15.7763 5.17678 15.8232C5.22366 15.8701 5.25 15.9337 5.25 16V18.9C5.25 19.6293 5.53973 20.3288 6.05546 20.8445C6.57118 21.3603 7.27065 21.65 8 21.65C8.72935 21.65 9.42882 21.3603 9.94454 20.8445C10.4603 20.3288 10.75 19.6293 10.75 18.9V16C10.75 15.9337 10.7763 15.8701 10.8232 15.8232C10.8701 15.7763 10.9337 15.75 11 15.75H13C13.7293 15.75 14.4288 15.4603 14.9445 14.9445C15.4603 14.4288 15.75 13.7293 15.75 13V12C15.75 11.5359 15.5656 11.0908 15.2374 10.7626C15.0945 10.6196 14.9293 10.5039 14.75 10.4189V2C14.75 1.53587 14.5656 1.09075 14.2374 0.762563C13.9092 0.434374 13.4641 0.25 13 0.25H3ZM2 11.75C1.9337 11.75 1.87011 11.7763 1.82322 11.8232C1.77634 11.8701 1.75 11.9337 1.75 12V13C1.75 13.3315 1.8817 13.6495 2.11612 13.8839C2.35054 14.1183 2.66848 14.25 3 14.25H5C5.46413 14.25 5.90925 14.4344 6.23744 14.7626C6.56563 15.0908 6.75 15.5359 6.75 16V18.9C6.75 19.2315 6.8817 19.5495 7.11612 19.7839C7.35054 20.0183 7.66848 20.15 8 20.15C8.33152 20.15 8.64946 20.0183 8.88388 19.7839C9.1183 19.5495 9.25 19.2315 9.25 18.9V16C9.25 15.5359 9.43437 15.0908 9.76256 14.7626C10.0908 14.4344 10.5359 14.25 11 14.25H13C13.3315 14.25 13.6495 14.1183 13.8839 13.8839C14.1183 13.6495 14.25 13.3315 14.25 13V12C14.25 11.9337 14.2237 11.8701 14.1768 11.8232C14.1299 11.7763 14.0663 11.75 14 11.75H2Z" fill="#869198"/>
</svg>
